<svg 
 xmlns="http://www.w3.org/2000/svg"
 xmlns:xlink="http://www.w3.org/1999/xlink"
 width="19px" height="13px">
<path fill-rule="evenodd"  fill="rgb(6, 72, 86)"
 d="M18.232,7.257 L0.768,7.257 C0.344,7.257 -0.000,6.918 -0.000,6.500 C-0.000,6.082 0.344,5.743 0.768,5.743 L18.232,5.743 C18.656,5.743 19.000,6.082 19.000,6.500 C19.000,6.918 18.656,7.257 18.232,7.257 ZM18.232,1.514 L0.768,1.514 C0.344,1.514 -0.000,1.175 -0.000,0.757 C-0.000,0.339 0.344,-0.000 0.768,-0.000 L18.232,-0.000 C18.656,-0.000 19.000,0.339 19.000,0.757 C19.000,1.175 18.656,1.514 18.232,1.514 ZM0.768,11.486 L18.232,11.486 C18.656,11.486 19.000,11.825 19.000,12.243 C19.000,12.661 18.656,13.000 18.232,13.000 L0.768,13.000 C0.344,13.000 -0.000,12.661 -0.000,12.243 C-0.000,11.825 0.344,11.486 0.768,11.486 Z"/>
</svg>