<svg 
 xmlns="http://www.w3.org/2000/svg"
 xmlns:xlink="http://www.w3.org/1999/xlink"
 width="48px" height="48px">
<defs>
<linearGradient id="PSgrad_0" x1="0%" x2="0%" y1="100%" y2="0%">
  <stop offset="0%" stop-color="rgb(0,56,67)" stop-opacity="1" />
  <stop offset="100%" stop-color="rgb(13,93,109)" stop-opacity="1" />
</linearGradient>

</defs>
<path fill-rule="evenodd"  fill="rgb(255, 255, 255)"
 d="M24.000,48.000 C10.745,48.000 -0.000,37.255 -0.000,24.000 C-0.000,10.745 10.745,-0.000 24.000,-0.000 C37.255,-0.000 48.000,10.745 48.000,24.000 C48.000,37.255 37.255,48.000 24.000,48.000 ZM35.643,20.356 C35.643,19.431 35.300,18.637 34.614,17.974 C33.928,17.311 33.106,16.980 32.149,16.980 L23.664,16.980 L23.664,16.498 C23.664,15.573 23.321,14.779 22.634,14.116 C21.948,13.453 21.126,13.121 20.170,13.121 L15.179,13.121 C14.222,13.121 13.400,13.453 12.714,14.116 C12.028,14.779 11.684,15.573 11.684,16.498 L11.684,30.964 C11.684,31.004 11.687,31.067 11.692,31.153 C11.697,31.238 11.700,31.301 11.700,31.340 L11.778,31.250 L17.034,25.283 C17.669,24.560 18.522,23.959 19.593,23.482 C20.664,23.004 21.688,22.766 22.666,22.766 L35.643,22.766 L35.643,20.356 ZM40.580,24.891 C40.306,24.760 39.990,24.695 39.637,24.695 L22.666,24.695 C21.980,24.695 21.233,24.873 20.427,25.230 C19.621,25.587 18.995,26.021 18.548,26.534 L13.306,32.501 C12.985,32.852 12.823,33.185 12.823,33.496 C12.823,33.797 12.961,34.013 13.236,34.144 C13.512,34.275 13.827,34.340 14.180,34.340 L31.152,34.340 C31.838,34.340 32.584,34.161 33.389,33.805 C34.195,33.448 34.822,33.014 35.270,32.501 L40.510,26.534 C40.833,26.182 40.994,25.850 40.994,25.539 C40.994,25.237 40.856,25.021 40.580,24.891 Z"/>
<path fill="url(#PSgrad_0)"
 d="M24.000,48.000 C10.745,48.000 -0.000,37.255 -0.000,24.000 C-0.000,10.745 10.745,-0.000 24.000,-0.000 C37.255,-0.000 48.000,10.745 48.000,24.000 C48.000,37.255 37.255,48.000 24.000,48.000 ZM35.643,20.356 C35.643,19.431 35.300,18.637 34.614,17.974 C33.928,17.311 33.106,16.980 32.149,16.980 L23.664,16.980 L23.664,16.498 C23.664,15.573 23.321,14.779 22.634,14.116 C21.948,13.453 21.126,13.121 20.170,13.121 L15.179,13.121 C14.222,13.121 13.400,13.453 12.714,14.116 C12.028,14.779 11.684,15.573 11.684,16.498 L11.684,30.964 C11.684,31.004 11.687,31.067 11.692,31.153 C11.697,31.238 11.700,31.301 11.700,31.340 L11.778,31.250 L17.034,25.283 C17.669,24.560 18.522,23.959 19.593,23.482 C20.664,23.004 21.688,22.766 22.666,22.766 L35.643,22.766 L35.643,20.356 ZM40.580,24.891 C40.306,24.760 39.990,24.695 39.637,24.695 L22.666,24.695 C21.980,24.695 21.233,24.873 20.427,25.230 C19.621,25.587 18.995,26.021 18.548,26.534 L13.306,32.501 C12.985,32.852 12.823,33.185 12.823,33.496 C12.823,33.797 12.961,34.013 13.236,34.144 C13.512,34.275 13.827,34.340 14.180,34.340 L31.152,34.340 C31.838,34.340 32.584,34.161 33.389,33.805 C34.195,33.448 34.822,33.014 35.270,32.501 L40.510,26.534 C40.833,26.182 40.994,25.850 40.994,25.539 C40.994,25.237 40.856,25.021 40.580,24.891 Z"/>
</svg>