<svg 
 xmlns="http://www.w3.org/2000/svg"
 xmlns:xlink="http://www.w3.org/1999/xlink"
 width="23px" height="23px">
<path fill-rule="evenodd"  fill="rgb(190, 219, 224)"
 d="M11.500,-0.000 C5.149,-0.000 -0.000,5.148 -0.000,11.499 C-0.000,17.850 5.149,23.000 11.500,23.000 C17.851,23.000 23.000,17.851 23.000,11.499 C23.000,5.148 17.851,-0.000 11.500,-0.000 L11.500,-0.000 ZM12.294,12.905 C12.293,12.936 12.289,12.966 12.285,12.996 C12.282,13.019 12.280,13.042 12.275,13.065 C12.270,13.088 12.261,13.110 12.254,13.134 C12.245,13.162 12.236,13.190 12.225,13.216 C12.222,13.221 12.222,13.226 12.220,13.230 C12.202,13.268 12.182,13.302 12.160,13.335 C12.159,13.337 12.157,13.339 12.156,13.341 C12.131,13.378 12.102,13.411 12.072,13.442 C12.064,13.451 12.055,13.459 12.046,13.467 C12.020,13.492 11.992,13.515 11.962,13.536 C11.953,13.543 11.944,13.550 11.935,13.556 C11.897,13.581 11.857,13.603 11.816,13.621 C11.807,13.625 11.797,13.627 11.788,13.631 C11.753,13.644 11.718,13.656 11.681,13.664 C11.668,13.667 11.655,13.670 11.642,13.672 C11.595,13.681 11.547,13.687 11.499,13.687 C11.490,13.687 11.479,13.684 11.470,13.683 C11.424,13.682 11.378,13.678 11.334,13.669 C11.320,13.666 11.307,13.660 11.293,13.656 C11.252,13.645 11.212,13.632 11.174,13.615 C11.170,13.613 11.165,13.613 11.161,13.611 L6.751,11.531 C6.354,11.344 6.184,10.870 6.371,10.472 C6.558,10.075 7.032,9.905 7.429,10.092 L10.705,11.636 L10.705,4.772 C10.705,4.333 11.061,3.977 11.500,3.977 C11.939,3.977 12.295,4.333 12.295,4.772 L12.295,12.891 C12.295,12.896 12.294,12.901 12.294,12.905 L12.294,12.905 Z"/>
</svg>