<svg 
 xmlns="http://www.w3.org/2000/svg"
 xmlns:xlink="http://www.w3.org/1999/xlink"
 width="17px" height="17px">
<path
 d="M16.620,14.772 L13.117,11.268 C13.961,10.048 14.383,8.690 14.383,7.191 C14.383,6.217 14.194,5.286 13.817,4.396 C13.438,3.508 12.928,2.741 12.284,2.098 C11.641,1.454 10.875,0.943 9.986,0.565 C9.098,0.187 8.167,-0.002 7.193,-0.002 C6.219,-0.002 5.287,0.187 4.399,0.565 C3.511,0.943 2.744,1.454 2.101,2.098 C1.457,2.741 0.946,3.508 0.568,4.396 C0.191,5.286 0.002,6.217 0.002,7.191 C0.002,8.165 0.191,9.096 0.568,9.985 C0.946,10.874 1.457,11.640 2.101,12.284 C2.744,12.928 3.511,13.439 4.399,13.817 C5.287,14.195 6.219,14.384 7.193,14.384 C8.690,14.384 10.049,13.962 11.268,13.117 L14.772,16.611 C15.016,16.870 15.323,17.000 15.690,17.000 C16.045,17.000 16.351,16.870 16.610,16.611 C16.869,16.352 16.998,16.045 16.998,15.692 C16.998,15.331 16.872,15.024 16.620,14.772 L16.620,14.772 ZM10.425,10.425 C9.530,11.321 8.452,11.769 7.193,11.769 C5.933,11.769 4.855,11.320 3.960,10.425 C3.064,9.529 2.617,8.452 2.617,7.191 C2.617,5.931 3.064,4.853 3.960,3.958 C4.855,3.062 5.933,2.614 7.193,2.614 C8.452,2.614 9.530,3.062 10.425,3.958 C11.321,4.853 11.769,5.931 11.769,7.191 C11.769,8.452 11.321,9.529 10.425,10.425 L10.425,10.425 Z"/>
</svg>