<svg 
 xmlns="http://www.w3.org/2000/svg"
 xmlns:xlink="http://www.w3.org/1999/xlink"
 width="25px" height="25px">
<path fill-rule="evenodd"  fill="rgb(192, 218, 222)"
 d="M12.499,25.000 C5.597,25.000 -0.000,19.402 -0.000,12.499 C-0.000,5.597 5.597,-0.000 12.499,-0.000 C19.403,-0.000 25.000,5.596 25.000,12.499 C25.000,19.403 19.403,25.000 12.499,25.000 ZM17.363,6.277 C17.363,5.321 16.588,4.548 15.633,4.548 L9.366,4.548 C8.411,4.548 7.637,5.322 7.637,6.277 L7.637,18.668 C7.637,19.623 8.411,20.397 9.366,20.397 L15.633,20.397 C16.588,20.397 17.363,19.623 17.363,18.668 L17.363,6.277 ZM15.224,17.042 L9.776,17.042 C9.470,17.042 9.222,16.805 9.222,16.514 L9.222,6.215 C9.222,5.924 9.470,5.687 9.776,5.687 L15.224,5.687 C15.530,5.687 15.778,5.924 15.778,6.215 L15.778,16.514 C15.778,16.805 15.530,17.042 15.224,17.042 ZM12.500,17.864 C13.039,17.864 13.476,18.301 13.476,18.840 C13.476,19.380 13.039,19.817 12.500,19.817 C11.961,19.817 11.523,19.380 11.523,18.840 C11.523,18.301 11.961,17.864 12.500,17.864 Z"/>
</svg>