<svg 
 xmlns="http://www.w3.org/2000/svg"
 xmlns:xlink="http://www.w3.org/1999/xlink"
 width="18px" height="18px">
<defs>
<linearGradient id="PSgrad_0" x1="0%" x2="0%" y1="100%" y2="0%">
  <stop offset="0%" stop-color="rgb(0,56,67)" stop-opacity="1" />
  <stop offset="100%" stop-color="rgb(13,93,109)" stop-opacity="1" />
</linearGradient>

</defs>
<path fill-rule="evenodd"  fill="rgb(49, 208, 200)"
 d="M8.984,-0.000 C13.945,-0.000 17.967,4.029 17.967,9.000 C17.967,11.318 17.999,17.897 17.999,17.897 C17.999,17.897 11.631,18.000 8.984,18.000 C4.022,18.000 -0.000,13.970 -0.000,9.000 C-0.000,4.029 4.022,-0.000 8.984,-0.000 Z"/>
<path fill="url(#PSgrad_0)"
 d="M8.984,-0.000 C13.945,-0.000 17.967,4.029 17.967,9.000 C17.967,11.318 17.999,17.897 17.999,17.897 C17.999,17.897 11.631,18.000 8.984,18.000 C4.022,18.000 -0.000,13.970 -0.000,9.000 C-0.000,4.029 4.022,-0.000 8.984,-0.000 Z"/>
</svg>