<svg 
 xmlns="http://www.w3.org/2000/svg"
 xmlns:xlink="http://www.w3.org/1999/xlink"
 width="119px" height="13px">
<path fill-rule="evenodd"  fill="rgb(0, 56, 67)"
 d="M117.962,7.891 C115.439,9.554 112.858,11.121 110.108,12.386 C109.934,12.466 109.761,12.550 109.583,12.619 C107.512,13.421 106.866,13.007 106.829,10.756 C106.786,8.014 106.795,5.271 106.805,2.528 C106.810,1.388 107.195,1.100 108.329,1.355 C108.697,1.438 109.055,1.598 109.397,1.766 C112.188,3.145 114.972,4.539 117.765,5.914 C118.256,6.155 118.623,6.508 119.003,6.977 C118.767,7.415 118.333,7.647 117.962,7.891 ZM92.305,12.337 C92.131,12.417 91.959,12.501 91.780,12.570 C89.710,13.372 89.063,12.959 89.027,10.708 C88.983,7.965 88.993,5.222 89.003,2.479 C89.007,1.340 89.393,1.052 90.526,1.307 C90.895,1.390 91.253,1.549 91.594,1.718 C94.386,3.096 97.169,4.491 99.963,5.865 C100.453,6.107 100.821,6.460 101.200,6.928 C100.964,7.366 100.531,7.598 100.160,7.843 C97.636,9.505 95.056,11.072 92.305,12.337 ZM74.503,12.288 C74.329,12.368 74.156,12.453 73.978,12.522 C71.908,13.323 71.261,12.910 71.225,10.659 C71.181,7.917 71.190,5.174 71.201,2.431 C71.205,1.291 71.591,1.003 72.724,1.258 C73.093,1.341 73.451,1.501 73.792,1.669 C76.583,3.047 79.367,4.442 82.160,5.816 C82.651,6.058 83.019,6.411 83.398,6.880 C83.162,7.317 82.729,7.550 82.358,7.794 C79.834,9.457 77.253,11.024 74.503,12.288 ZM56.701,12.240 C56.527,12.320 56.354,12.404 56.176,12.473 C54.105,13.275 53.459,12.862 53.422,10.610 C53.378,7.868 53.388,5.125 53.398,2.382 C53.403,1.243 53.788,0.954 54.922,1.210 C55.290,1.293 55.648,1.452 55.990,1.620 C58.781,2.999 61.565,4.393 64.358,5.768 C64.849,6.010 65.216,6.363 65.596,6.831 C65.360,7.269 64.926,7.501 64.555,7.746 C62.031,9.408 59.451,10.975 56.701,12.240 ZM38.899,12.191 C38.724,12.271 38.552,12.355 38.373,12.424 C36.303,13.226 35.656,12.813 35.620,10.562 C35.576,7.820 35.586,5.076 35.596,2.334 C35.600,1.194 35.986,0.906 37.120,1.161 C37.488,1.244 37.846,1.403 38.187,1.572 C40.979,2.950 43.762,4.345 46.556,5.719 C47.046,5.961 47.414,6.314 47.793,6.783 C47.558,7.220 47.124,7.453 46.753,7.697 C44.229,9.359 41.649,10.927 38.899,12.191 ZM21.096,12.142 C20.922,12.223 20.749,12.307 20.571,12.376 C18.501,13.178 17.854,12.765 17.818,10.513 C17.774,7.771 17.783,5.028 17.794,2.285 C17.798,1.145 18.184,0.857 19.317,1.112 C19.685,1.196 20.044,1.355 20.385,1.523 C23.176,2.902 25.960,4.296 28.753,5.671 C29.244,5.912 29.612,6.265 29.991,6.734 C29.755,7.172 29.322,7.404 28.951,7.649 C26.427,9.311 23.846,10.878 21.096,12.142 ZM3.294,12.094 C3.120,12.174 2.947,12.258 2.769,12.327 C0.698,13.129 0.051,12.716 0.015,10.465 C-0.029,7.723 -0.019,4.979 -0.009,2.236 C-0.004,1.097 0.381,0.808 1.515,1.064 C1.883,1.147 2.241,1.306 2.583,1.475 C5.374,2.853 8.158,4.248 10.951,5.622 C11.442,5.864 11.809,6.217 12.189,6.685 C11.953,7.123 11.519,7.355 11.148,7.600 C8.624,9.262 6.044,10.829 3.294,12.094 Z"/>
</svg>