<svg 
 xmlns="http://www.w3.org/2000/svg"
 xmlns:xlink="http://www.w3.org/1999/xlink"
 width="48px" height="48px">
<defs>
<linearGradient id="PSgrad_0" x1="0%" x2="0%" y1="100%" y2="0%">
  <stop offset="0%" stop-color="rgb(0,56,67)" stop-opacity="1" />
  <stop offset="100%" stop-color="rgb(13,93,109)" stop-opacity="1" />
</linearGradient>

</defs>
<path fill-rule="evenodd"  fill="rgb(255, 255, 255)"
 d="M23.984,48.000 C10.738,48.000 -0.000,37.255 -0.000,24.000 C-0.000,10.745 10.738,-0.000 23.984,-0.000 C37.231,-0.000 47.969,10.745 47.969,24.000 C47.969,37.255 37.231,48.000 23.984,48.000 ZM35.368,13.921 C30.540,13.921 26.842,12.530 23.715,9.463 C20.588,12.530 16.890,13.921 12.063,13.921 C12.063,21.910 10.424,33.353 23.715,38.000 C37.006,33.353 35.368,21.910 35.368,13.921 ZM18.867,24.062 L20.606,22.309 L22.749,24.472 L26.824,20.361 L28.562,22.115 L22.749,27.979 L18.867,24.062 Z"/>
<path fill="url(#PSgrad_0)"
 d="M23.984,48.000 C10.738,48.000 -0.000,37.255 -0.000,24.000 C-0.000,10.745 10.738,-0.000 23.984,-0.000 C37.231,-0.000 47.969,10.745 47.969,24.000 C47.969,37.255 37.231,48.000 23.984,48.000 ZM35.368,13.921 C30.540,13.921 26.842,12.530 23.715,9.463 C20.588,12.530 16.890,13.921 12.063,13.921 C12.063,21.910 10.424,33.353 23.715,38.000 C37.006,33.353 35.368,21.910 35.368,13.921 ZM18.867,24.062 L20.606,22.309 L22.749,24.472 L26.824,20.361 L28.562,22.115 L22.749,27.979 L18.867,24.062 Z"/>
</svg>