<svg 
 xmlns="http://www.w3.org/2000/svg"
 xmlns:xlink="http://www.w3.org/1999/xlink"
 width="48px" height="48px">
<defs>
<linearGradient id="PSgrad_0" x1="0%" x2="0%" y1="100%" y2="0%">
  <stop offset="0%" stop-color="rgb(0,56,67)" stop-opacity="1" />
  <stop offset="100%" stop-color="rgb(13,93,109)" stop-opacity="1" />
</linearGradient>

</defs>
<path fill-rule="evenodd"  fill="rgb(255, 255, 255)"
 d="M24.000,48.000 C10.745,48.000 -0.000,37.255 -0.000,24.000 C-0.000,10.745 10.745,-0.000 24.000,-0.000 C37.255,-0.000 48.000,10.745 48.000,24.000 C48.000,37.255 37.255,48.000 24.000,48.000 ZM28.222,19.433 L24.108,9.995 L19.994,19.433 L9.454,20.316 L17.446,27.047 L15.050,37.054 L24.108,31.749 L33.166,37.054 L30.770,27.040 L38.762,20.316 L28.222,19.433 ZM29.625,32.304 L24.108,29.078 L24.108,15.829 L26.612,21.574 L33.030,22.110 L28.165,26.212 L29.625,32.304 Z"/>
<path fill="url(#PSgrad_0)"
 d="M24.000,48.000 C10.745,48.000 -0.000,37.255 -0.000,24.000 C-0.000,10.745 10.745,-0.000 24.000,-0.000 C37.255,-0.000 48.000,10.745 48.000,24.000 C48.000,37.255 37.255,48.000 24.000,48.000 ZM28.222,19.433 L24.108,9.995 L19.994,19.433 L9.454,20.316 L17.446,27.047 L15.050,37.054 L24.108,31.749 L33.166,37.054 L30.770,27.040 L38.762,20.316 L28.222,19.433 ZM29.625,32.304 L24.108,29.078 L24.108,15.829 L26.612,21.574 L33.030,22.110 L28.165,26.212 L29.625,32.304 Z"/>
</svg>