<svg 
 xmlns="http://www.w3.org/2000/svg"
 xmlns:xlink="http://www.w3.org/1999/xlink"
 width="64px" height="54px">
<path fill-rule="evenodd"  fill="rgb(255, 255, 255)"
 d="M62.679,32.328 C61.550,32.844 60.217,32.349 59.698,31.214 L56.072,23.265 L56.077,51.297 C56.077,52.791 54.869,54.000 53.378,54.000 C51.885,54.000 50.677,52.791 50.677,51.297 L50.677,35.190 L48.708,35.190 L48.708,51.297 C48.708,52.791 47.499,54.000 46.008,54.000 C44.516,54.000 43.307,52.791 43.307,51.297 C43.308,47.413 43.314,18.766 43.314,15.521 L36.148,12.660 C35.755,12.504 35.414,12.239 35.166,11.897 L30.595,5.645 C29.860,4.642 30.079,3.232 31.083,2.498 C32.085,1.760 33.492,1.981 34.227,2.986 L38.416,8.716 L45.557,11.567 C45.596,11.565 53.925,11.593 54.032,11.608 C54.961,11.520 55.879,11.996 56.289,12.892 L63.791,29.344 C64.308,30.475 63.810,31.812 62.679,32.328 ZM49.692,10.531 C46.787,10.531 44.431,8.174 44.431,5.267 C44.431,2.357 46.787,-0.000 49.692,-0.000 C52.600,-0.000 54.953,2.357 54.953,5.267 C54.953,8.174 52.600,10.531 49.692,10.531 ZM28.828,11.898 C28.580,12.239 28.239,12.504 27.846,12.660 L20.680,15.521 L20.687,51.298 C20.687,52.791 19.479,54.000 17.987,54.000 C16.495,54.000 15.286,52.791 15.286,51.298 L15.286,35.190 L13.318,35.190 L13.318,51.298 C13.318,52.791 12.109,54.000 10.617,54.000 C9.125,54.000 7.917,52.791 7.917,51.298 C7.917,51.298 7.922,31.854 7.922,31.845 L7.922,23.265 L4.297,31.214 C3.778,32.349 2.444,32.844 1.315,32.328 C0.185,31.812 -0.313,30.475 0.203,29.344 L7.705,12.892 C8.114,11.996 9.035,11.520 9.962,11.608 C10.069,11.593 18.325,11.544 18.325,11.544 C18.365,11.544 18.398,11.565 18.437,11.567 L25.578,8.716 L28.412,4.839 C28.497,5.493 28.725,6.139 29.142,6.709 L30.882,9.089 L28.828,11.898 ZM14.302,10.531 C11.394,10.531 9.041,8.174 9.041,5.267 C9.041,2.357 11.394,-0.000 14.302,-0.000 C17.208,-0.000 19.564,2.357 19.564,5.267 C19.564,8.174 17.208,10.531 14.302,10.531 Z"/>
</svg>