<svg 
 xmlns="http://www.w3.org/2000/svg"
 xmlns:xlink="http://www.w3.org/1999/xlink"
 width="41px" height="43px">
<defs>
<linearGradient id="PSgrad_0" x1="0%" x2="0%" y1="100%" y2="0%">
  <stop offset="0%" stop-color="rgb(4,180,171)" stop-opacity="1" />
  <stop offset="100%" stop-color="rgb(49,208,200)" stop-opacity="1" />
</linearGradient>

</defs>
<path fill-rule="evenodd"  fill="rgb(49, 208, 200)"
 d="M11.158,17.165 L7.969,20.361 L18.202,30.617 L40.960,7.808 L37.783,4.623 L18.202,24.236 L11.158,17.165 ZM36.417,37.468 L4.558,37.468 L4.558,5.538 L27.317,5.538 L27.317,0.970 L4.558,0.970 C2.047,0.970 0.001,3.021 0.001,5.538 L0.001,37.468 C0.001,39.974 2.047,42.021 4.558,42.021 L36.417,42.021 C38.918,42.021 40.960,39.974 40.960,37.468 L40.960,19.212 L36.417,19.212 L36.417,37.468 Z"/>
<path fill="url(#PSgrad_0)"
 d="M11.158,17.165 L7.969,20.361 L18.202,30.617 L40.960,7.808 L37.783,4.623 L18.202,24.236 L11.158,17.165 ZM36.417,37.468 L4.558,37.468 L4.558,5.538 L27.317,5.538 L27.317,0.970 L4.558,0.970 C2.047,0.970 0.001,3.021 0.001,5.538 L0.001,37.468 C0.001,39.974 2.047,42.021 4.558,42.021 L36.417,42.021 C38.918,42.021 40.960,39.974 40.960,37.468 L40.960,19.212 L36.417,19.212 L36.417,37.468 Z"/>
</svg>